<?xml version="1.0" encoding="utf-8"?>
<!-- Generator: Adobe Illustrator 17.0.0, SVG Export Plug-In . SVG Version: 6.00 Build 0)  -->
<!DOCTYPE svg PUBLIC "-//W3C//DTD SVG 1.1//EN" "http://www.w3.org/Graphics/SVG/1.1/DTD/svg11.dtd">
<svg version="1.1" id="Layer_1" xmlns="http://www.w3.org/2000/svg" xmlns:xlink="http://www.w3.org/1999/xlink" x="0px" y="0px"
	 width="200px" height="200px" viewBox="0 0 200 200" enable-background="new 0 0 200 200" xml:space="preserve">
<g>
	<rect fill="#FFFFFF" width="200" height="200"/>
	<g>
		<path d="M176.59,34.994H23.41c-2.918,0-5.286,2.368-5.286,5.286v119.439c0,2.918,2.368,5.286,5.286,5.286h153.18
			c2.919,0,5.286-2.368,5.286-5.286V40.281C181.876,37.363,179.509,34.994,176.59,34.994L176.59,34.994z M171.304,45.567v100.857
			l-42.287-44.968c-1.001-1.06-2.395-1.666-3.851-1.666c-1.459,0-2.849,0.606-3.851,1.666l-18.058,19.19L79.044,88.722
			c-0.998-1.318-2.558-2.092-4.21-2.092h-0.007c-1.656,0.004-3.214,0.781-4.212,2.099l-41.919,55.466V45.567H171.304z
			 M164.321,154.433H34.21l40.632-53.759l23.768,31.339c0.939,1.243,2.378,2.004,3.93,2.086c1.552,0.076,3.067-0.523,4.13-1.656
			l18.492-19.652L164.321,154.433z M164.321,154.433"/>
		<path d="M127.543,89.795c9.582,0,17.377-7.798,17.377-17.38c0-9.585-7.796-17.381-17.377-17.381
			c-9.585,0-17.38,7.799-17.38,17.381S117.958,89.795,127.543,89.795L127.543,89.795z M127.543,65.607
			c3.752,0,6.804,3.053,6.804,6.808c0,3.752-3.053,6.804-6.804,6.804c-3.754,0-6.807-3.053-6.807-6.804
			C120.736,68.66,123.789,65.607,127.543,65.607L127.543,65.607z M127.543,65.607"/>
	</g>
</g>
</svg>
