<?xml version="1.0" encoding="utf-8"?>
<!-- Generator: Adobe Illustrator 17.0.0, SVG Export Plug-In . SVG Version: 6.00 Build 0)  -->
<!DOCTYPE svg PUBLIC "-//W3C//DTD SVG 1.1//EN" "http://www.w3.org/Graphics/SVG/1.1/DTD/svg11.dtd">
<svg version="1.1" id="Layer_1" xmlns="http://www.w3.org/2000/svg" xmlns:xlink="http://www.w3.org/1999/xlink" x="0px" y="0px"
	 width="20px" height="20px" viewBox="0 0 20 20" enable-background="new 0 0 20 20" xml:space="preserve">
<g>
	<rect fill="#1E1E1E" width="20" height="20"/>
	<path fill="#12B9BC" d="M13.984,17.259l2.391-4.25L10,1.259l-6.375,11.75l2.391,4.25H13.984z M10.5,11.759
		c0,0.275-0.224,0.5-0.5,0.5s-0.5-0.225-0.5-0.5s0.224-0.5,0.5-0.5S10.5,11.484,10.5,11.759z M9.5,4.278v6.074
		c-0.581,0.207-1,0.757-1,1.408c0,0.827,0.673,1.5,1.5,1.5s1.5-0.673,1.5-1.5c0-0.651-0.419-1.201-1-1.408V4.278L15.233,13
		L13.4,16.259H6.6L4.767,13L9.5,4.278z"/>
	<rect x="6" y="18" fill="#12B9BC" width="8" height="1"/>
</g>
</svg>
