<?xml version="1.0" encoding="utf-8"?>
<!-- Generator: Adobe Illustrator 17.0.0, SVG Export Plug-In . SVG Version: 6.00 Build 0)  -->
<!DOCTYPE svg PUBLIC "-//W3C//DTD SVG 1.1//EN" "http://www.w3.org/Graphics/SVG/1.1/DTD/svg11.dtd">
<svg version="1.1" id="Layer_1" xmlns="http://www.w3.org/2000/svg" xmlns:xlink="http://www.w3.org/1999/xlink" x="0px" y="0px"
	 width="200px" height="200px" viewBox="0 0 200 200" enable-background="new 0 0 200 200" xml:space="preserve">
<g>
	<rect fill="#FFFFFF" width="200" height="200"/>
	<g>
		<path fill="#222220" d="M189.555,125.212h-11.114c-1.541-28.097-18.148-53.113-42.731-65.7h19.673
			c1.744,4.662,6.233,7.995,11.498,7.995c6.773,0,12.284-5.511,12.284-12.283c0-6.776-5.511-12.286-12.284-12.286
			c-5.265,0-9.754,3.333-11.498,7.998h-35.817V39.945c0-2.368-1.92-4.288-4.288-4.288H84.722c-2.368,0-4.288,1.92-4.288,4.288
			v10.988H48.805c-1.745-4.662-6.234-7.996-11.496-7.996c-6.776,0-12.286,5.511-12.286,12.284c0,6.775,5.511,12.286,12.286,12.286
			c5.262,0,9.751-3.333,11.496-7.998H64.32c-9.902,5.07-18.735,12.224-25.742,20.999c-10.32,12.922-16.161,28.301-17.026,44.705
			H10.445c-2.367,0-4.288,1.921-4.288,4.288v30.554c0,2.368,1.921,4.288,4.288,4.288h30.554c2.37,0,4.288-1.92,4.288-4.288V129.5
			c0-2.367-1.918-4.288-4.288-4.288H30.153c0.857-14.438,6.033-27.967,15.125-39.353c9.012-11.281,21.401-19.561,35.155-23.57V70.5
			c0,2.37,1.92,4.288,4.288,4.288h30.557c2.368,0,4.288-1.918,4.288-4.288v-8.208c28.344,8.239,48.472,33.659,50.275,62.92h-10.84
			c-2.37,0-4.288,1.921-4.288,4.288v30.554c0,2.368,1.918,4.288,4.288,4.288h30.554c2.368,0,4.288-1.92,4.288-4.288V129.5
			C193.843,127.133,191.923,125.212,189.555,125.212L189.555,125.212z M36.711,155.767H14.733v-21.979h21.979V155.767z
			 M166.881,51.513c2.044,0,3.708,1.664,3.708,3.71c0,2.043-1.664,3.707-3.708,3.707c-2.046,0-3.71-1.664-3.71-3.707
			C163.172,53.177,164.835,51.513,166.881,51.513L166.881,51.513z M37.309,58.931c-2.046,0-3.71-1.664-3.71-3.707
			c0-2.047,1.664-3.71,3.71-3.71c2.043,0,3.707,1.664,3.707,3.71C41.016,57.267,39.352,58.931,37.309,58.931L37.309,58.931z
			 M110.99,66.212H89.01V44.233h21.981V66.212z M185.267,155.767h-21.979v-21.979h21.979V155.767z M185.267,155.767"/>
	</g>
</g>
</svg>
