<?xml version="1.0" standalone="yes"?>

<svg version="1.1" viewBox="0.0 0.0 100.0 100.0" fill="none" stroke="none" stroke-linecap="square" stroke-miterlimit="10" xmlns="http://www.w3.org/2000/svg" xmlns:xlink="http://www.w3.org/1999/xlink"><clipPath id="p.0"><path d="m0 0l100.0 0l0 100.0l-100.0 0l0 -100.0z" clip-rule="nonzero"></path></clipPath><g clip-path="url(#p.0)"><path fill="#000000" fill-opacity="0.0" d="m0 0l100.0 0l0 100.0l-100.0 0z" fill-rule="nonzero"></path><path fill="#cfe2f3" d="m0 50.0l0 0c0 -27.614237 22.385763 -50.0 50.0 -50.0l0 0c13.260826 0 25.978523 5.267842 35.35534 14.644661c9.376816 9.37682 14.644661 22.094513 14.644661 35.35534l0 0c0 27.614235 -22.385765 50.0 -50.0 50.0l0 0c-27.614237 0 -50.0 -22.385765 -50.0 -50.0z" fill-rule="nonzero"></path><path stroke="#000000" stroke-width="2.0" stroke-linejoin="round" stroke-linecap="butt" d="m0 50.0l0 0c0 -27.614237 22.385763 -50.0 50.0 -50.0l0 0c13.260826 0 25.978523 5.267842 35.35534 14.644661c9.376816 9.37682 14.644661 22.094513 14.644661 35.35534l0 0c0 27.614235 -22.385765 50.0 -50.0 50.0l0 0c-27.614237 0 -50.0 -22.385765 -50.0 -50.0z" fill-rule="nonzero"></path><path fill="#ffffff" d="m22.363047 35.9191l13.210901 -13.377468l14.426052 14.246429l14.426056 -14.246429l13.210899 13.377468l-14.258438 14.080898l14.258438 14.080902l-13.210899 13.377464l-14.426056 -14.246429l-14.426052 14.246429l-13.210901 -13.377464l14.258436 -14.080902z" fill-rule="nonzero"></path><path stroke="#000000" stroke-width="2.0" stroke-linejoin="round" stroke-linecap="butt" d="m22.363047 35.9191l13.210901 -13.377468l14.426052 14.246429l14.426056 -14.246429l13.210899 13.377468l-14.258438 14.080898l14.258438 14.080902l-13.210899 13.377464l-14.426056 -14.246429l-14.426052 14.246429l-13.210901 -13.377464l14.258436 -14.080902z" fill-rule="nonzero"></path></g></svg>

