<?xml version="1.0" standalone="yes"?>

<svg version="1.1" viewBox="0.0 0.0 100.0 100.0" fill="none" stroke="none" stroke-linecap="square" stroke-miterlimit="10" xmlns="http://www.w3.org/2000/svg" xmlns:xlink="http://www.w3.org/1999/xlink"><clipPath id="p.0"><path d="m0 0l100.0 0l0 100.0l-100.0 0l0 -100.0z" clip-rule="nonzero"></path></clipPath><g clip-path="url(#p.0)"><path fill="#000000" fill-opacity="0.0" d="m0 0l100.0 0l0 100.0l-100.0 0z" fill-rule="nonzero"></path><path fill="#000000" d="m1.0708661 50.0l0 0c0 -27.127184 21.90632 -49.11811 48.929134 -49.11811l0 0c12.976814 0 25.422127 5.1749287 34.59812 14.386362c9.175995 9.2114315 14.331009 21.704817 14.331009 34.73175l0 0c0 27.127182 -21.906319 49.11811 -48.92913 49.11811l0 0c-27.022814 0 -48.929134 -21.990929 -48.929134 -49.11811z" fill-rule="nonzero"></path><path stroke="#000000" stroke-width="2.0" stroke-linejoin="round" stroke-linecap="butt" d="m1.0708661 50.0l0 0c0 -27.127184 21.90632 -49.11811 48.929134 -49.11811l0 0c12.976814 0 25.422127 5.1749287 34.59812 14.386362c9.175995 9.2114315 14.331009 21.704817 14.331009 34.73175l0 0c0 27.127182 -21.906319 49.11811 -48.92913 49.11811l0 0c-27.022814 0 -48.929134 -21.990929 -48.929134 -49.11811z" fill-rule="nonzero"></path><path fill="#000000" fill-opacity="0.0" d="m15.968504 49.92126l68.06299 0.15747833" fill-rule="nonzero"></path><path stroke="#ffffff" stroke-width="12.0" stroke-linejoin="round" stroke-linecap="butt" d="m15.968504 49.92126l68.06299 0.15747833" fill-rule="nonzero"></path></g></svg>

